<svg width="26" height="26" viewBox="0 0 26 26" fill="none" xmlns="http://www.w3.org/2000/svg">
<path fill-rule="evenodd" clip-rule="evenodd" d="M21.125 0H4.875C2.18263 0 0 2.18263 0 4.875V21.125C0 23.8174 2.18263 26 4.875 26H21.125C23.8174 26 26 23.8174 26 21.125V4.875C26 2.18263 23.8174 0 21.125 0ZM20.4647 14.0024H18.0324V23.0066H13.9682V14.0024H12.3911V10.9679H13.9682V9.035C13.9682 6.50342 15.0218 4.99816 18.005 4.99816H21.0292V8.01895H19.2708C18.1076 8.01895 18.0324 8.45342 18.0324 9.26079L18.0289 10.9645H20.7932L20.4613 13.9989L20.4647 14.0024Z" fill="black"/>
</svg>
