<svg width="26" height="26" viewBox="0 0 26 26" fill="none" xmlns="http://www.w3.org/2000/svg">
<path d="M8.66772 13.0005C8.66772 10.6073 10.6073 8.66667 13.0005 8.66667C15.3938 8.66667 17.3344 10.6073 17.3344 13.0005C17.3344 15.3938 15.3938 17.3344 13.0005 17.3344C10.6073 17.3344 8.66772 15.3938 8.66772 13.0005ZM6.32489 13.0005C6.32489 16.6875 9.31354 19.6762 13.0005 19.6762C16.6875 19.6762 19.6762 16.6875 19.6762 13.0005C19.6762 9.31354 16.6875 6.32489 13.0005 6.32489C9.31354 6.32489 6.32489 9.31354 6.32489 13.0005ZM18.3803 6.06026C18.3803 6.92136 19.0786 7.62074 19.9408 7.62074C20.8019 7.62074 21.5013 6.92136 21.5013 6.06026C21.5013 5.19916 20.8029 4.50083 19.9408 4.50083C19.0786 4.50083 18.3803 5.19916 18.3803 6.06026ZM7.74781 23.5826C6.48031 23.5249 5.79143 23.3138 5.33358 23.1353C4.7266 22.899 4.29395 22.6176 3.8382 22.1628C3.3835 21.7081 3.10101 21.2755 2.86579 20.6685C2.68727 20.2107 2.47619 19.5218 2.41843 18.2543C2.35543 16.8839 2.34282 16.4722 2.34282 13.0005C2.34282 9.52882 2.35648 9.11822 2.41843 7.74676C2.47619 6.47926 2.68832 5.79143 2.86579 5.33253C3.10206 4.72555 3.3835 4.2929 3.8382 3.83715C4.2929 3.38245 4.72555 3.09996 5.33358 2.86474C5.79143 2.68621 6.48031 2.47514 7.74781 2.41738C9.11822 2.35438 9.52987 2.34177 13.0005 2.34177C16.4722 2.34177 16.8828 2.35543 18.2543 2.41738C19.5218 2.47514 20.2096 2.68727 20.6685 2.86474C21.2755 3.09996 21.7081 3.38245 22.1639 3.83715C22.6186 4.29185 22.9 4.72555 23.1363 5.33253C23.3148 5.79038 23.5259 6.47926 23.5837 7.74676C23.6467 9.11822 23.6593 9.52882 23.6593 13.0005C23.6593 16.4712 23.6467 16.8828 23.5837 18.2543C23.5259 19.5218 23.3138 20.2107 23.1363 20.6685C22.9 21.2755 22.6186 21.7081 22.1639 22.1628C21.7092 22.6176 21.2755 22.899 20.6685 23.1353C20.2107 23.3138 19.5218 23.5249 18.2543 23.5826C16.8839 23.6456 16.4722 23.6582 13.0005 23.6582C9.52987 23.6582 9.11822 23.6456 7.74781 23.5826ZM7.6407 0.0787592C6.25663 0.141767 5.31152 0.361242 4.48508 0.68258C3.63028 1.01442 2.90569 1.45967 2.18216 2.18216C1.45967 2.90464 1.01442 3.62923 0.68258 4.48508C0.361242 5.31152 0.141767 6.25663 0.0787592 7.6407C0.0147017 9.02686 0 9.47001 0 13.0005C0 16.531 0.0147017 16.9742 0.0787592 18.3604C0.141767 19.7444 0.361242 20.6895 0.68258 21.516C1.01442 22.3708 1.45862 23.0964 2.18216 23.8189C2.90464 24.5414 3.62923 24.9856 4.48508 25.3185C5.31257 25.6398 6.25663 25.8593 7.6407 25.9223C9.02791 25.9853 9.47001 26.0011 13.0005 26.0011C16.5321 26.0011 16.9742 25.9863 18.3604 25.9223C19.7444 25.8593 20.6895 25.6398 21.516 25.3185C22.3708 24.9856 23.0954 24.5414 23.8189 23.8189C24.5414 23.0964 24.9856 22.3708 25.3185 21.516C25.6398 20.6895 25.8603 19.7444 25.9223 18.3604C25.9853 16.9731 26 16.531 26 13.0005C26 9.47001 25.9853 9.02686 25.9223 7.6407C25.8593 6.25663 25.6398 5.31152 25.3185 4.48508C24.9856 3.63028 24.5414 2.90569 23.8189 2.18216C23.0964 1.45967 22.3708 1.01442 21.517 0.68258C20.6895 0.361242 19.7444 0.140717 18.3614 0.0787592C16.9752 0.0157518 16.5321 0 13.0016 0C9.47001 0 9.02791 0.0147017 7.6407 0.0787592Z" fill="black"/>
</svg>
