<svg width="315" height="59" viewBox="0 0 315 59" fill="none" xmlns="http://www.w3.org/2000/svg">
<path d="M24.7171 29.58H11.1571V45H0.237109V4.26H26.6971L27.7171 12.84H11.1571V21H23.6971L24.7171 29.58ZM30.1223 30.3C30.1223 25.42 31.7223 21.64 34.9223 18.96C38.1623 16.24 42.0623 14.88 46.6223 14.88C51.4223 14.88 55.3623 16.2 58.4423 18.84C61.5623 21.48 63.1223 25.4 63.1223 30.6C63.1223 35.48 61.5023 39.22 58.2623 41.82C55.0223 44.38 51.0623 45.66 46.3823 45.66C41.7023 45.66 37.8223 44.4 34.7423 41.88C31.6623 39.36 30.1223 35.5 30.1223 30.3ZM41.4023 30.3C41.4023 32.26 41.8423 33.84 42.7223 35.04C43.6023 36.2 44.8623 36.78 46.5023 36.78C48.2223 36.78 49.5423 36.26 50.4623 35.22C51.3823 34.18 51.8423 32.64 51.8423 30.6C51.8423 28.64 51.4023 27.02 50.5223 25.74C49.6423 24.42 48.3823 23.76 46.7423 23.76C45.0223 23.76 43.7023 24.34 42.7823 25.5C41.8623 26.66 41.4023 28.26 41.4023 30.3ZM87.9234 45L82.8234 38.76L77.8434 45H65.5434L76.2234 30.54L65.5434 17.28L76.8234 15.78L82.4634 22.92L88.1034 15.9H100.163L89.0634 31.14L100.163 45H87.9234ZM147.408 45H118.128V4.2H129.048V36.42H146.388L147.408 45ZM157.029 11.94C155.429 11.94 154.049 11.36 152.889 10.2C151.729 9.04 151.149 7.66 151.149 6.06C151.149 4.42 151.729 3.02 152.889 1.86C154.049 0.659999 155.429 0.0599992 157.029 0.0599992C158.669 0.0599992 160.069 0.659999 161.229 1.86C162.429 3.02 163.029 4.42 163.029 6.06C163.029 7.66 162.429 9.04 161.229 10.2C160.069 11.36 158.669 11.94 157.029 11.94ZM151.629 45V15.9H162.549V45H151.629ZM169.735 45V3.3L180.655 2.64V16.44C181.415 16.04 182.355 15.68 183.475 15.36C184.635 15.04 185.815 14.88 187.015 14.88C191.695 14.88 195.195 16.32 197.515 19.2C199.835 22.08 200.995 25.68 200.995 30C200.995 34.36 199.835 38.06 197.515 41.1C195.235 44.14 191.535 45.66 186.415 45.66C184.775 45.66 183.115 45.32 181.435 44.64C179.795 43.96 178.335 43.14 177.055 42.18L175.255 45H169.735ZM189.715 30.24C189.715 28.52 189.235 27.02 188.275 25.74C187.355 24.42 186.015 23.76 184.255 23.76C183.815 23.76 183.235 23.84 182.515 24C181.795 24.16 181.175 24.36 180.655 24.6V34.98C181.215 35.5 181.915 35.94 182.755 36.3C183.595 36.62 184.395 36.78 185.155 36.78C186.795 36.78 187.955 36.06 188.635 34.62C189.355 33.14 189.715 31.68 189.715 30.24ZM206.414 45V15.96H211.874L214.514 18.9C215.714 18.1 217.134 17.4 218.774 16.8C220.414 16.2 222.054 15.9 223.694 15.9L225.914 24.66C224.474 24.66 222.994 24.86 221.474 25.26C219.954 25.66 218.574 26.34 217.334 27.3V45H206.414ZM237.406 35.22C237.406 35.7 237.606 36.1 238.006 36.42C238.406 36.74 238.866 36.9 239.386 36.9C240.026 36.9 240.666 36.76 241.306 36.48C241.946 36.2 242.586 35.8 243.226 35.28V33.12H239.866C239.146 33.12 238.546 33.32 238.066 33.72C237.626 34.08 237.406 34.58 237.406 35.22ZM229.246 17.64C230.766 16.96 232.686 16.34 235.006 15.78C237.326 15.18 239.686 14.88 242.086 14.88C246.046 14.88 249.046 15.98 251.086 18.18C253.126 20.38 254.146 23.32 254.146 27V45H249.286L247.306 42.78C246.426 43.66 245.266 44.36 243.826 44.88C242.386 45.4 240.846 45.66 239.206 45.66C235.526 45.66 232.786 44.74 230.986 42.9C229.186 41.06 228.286 38.64 228.286 35.64C228.286 32.48 229.346 30.18 231.466 28.74C233.586 27.26 236.326 26.52 239.686 26.52H243.166C243.006 25.64 242.586 24.96 241.906 24.48C241.226 24 240.386 23.76 239.386 23.76C238.386 23.76 237.206 23.94 235.846 24.3C234.486 24.62 233.246 25.02 232.126 25.5L229.246 17.64ZM260.731 45V15.96H266.191L268.831 18.9C270.031 18.1 271.451 17.4 273.091 16.8C274.731 16.2 276.371 15.9 278.011 15.9L280.231 24.66C278.791 24.66 277.311 24.86 275.791 25.26C274.271 25.66 272.891 26.34 271.651 27.3V45H260.731ZM292.083 45.12L292.323 44.46L281.403 16.98L292.083 15.9L297.903 32.34L303.483 15.9H314.343L301.563 48.42C300.643 50.78 298.923 52.82 296.403 54.54C293.883 56.3 291.183 57.5 288.303 58.14L284.643 49.68C286.083 49.08 287.603 48.38 289.203 47.58C290.803 46.82 291.763 46 292.083 45.12Z" fill="#FF5D4F"/>
</svg>
